<svg width="311" height="90" viewBox="0 0 311 90" fill="none" xmlns="http://www.w3.org/2000/svg">
<path d="M50.885 21.568L50.501 24.128H3.013L3.653 21.568H50.885ZM21.829 77.12C21.317 78.912 21.2743 80.2773 21.701 81.216C22.213 82.0693 23.0237 82.496 24.133 82.496C25.8397 82.496 27.5463 81.5573 29.253 79.68C30.9597 77.8027 32.325 75.4987 33.349 72.768L35.397 67.264H37.829L35.397 74.304C33.7757 79.168 31.2157 82.9653 27.717 85.696C24.2183 88.4267 19.9943 89.792 15.045 89.792C10.7783 89.792 7.493 88.8107 5.189 86.848C2.885 84.8 1.51967 82.112 1.093 78.784C0.666333 75.456 1.00767 71.7867 2.117 67.776L20.805 2.752C25.4983 2.66666 29.6797 2.49599 33.349 2.24C37.0183 1.984 40.6023 1.55733 44.101 0.959999L21.829 77.12ZM69.987 81.088C70.8403 81.088 71.7363 80.7467 72.675 80.064C73.6137 79.3813 74.595 78.2293 75.619 76.608C76.643 74.9013 77.7523 72.5547 78.947 69.568C80.1417 66.5813 81.4217 62.7413 82.787 58.048L79.459 72C78.0937 76.5227 76.3443 80.1067 74.211 82.752C72.163 85.312 69.8163 87.104 67.171 88.128C64.611 89.2373 61.8377 89.792 58.851 89.792C53.475 89.792 49.4643 88.4267 46.819 85.696C44.259 82.88 42.979 78.912 42.979 73.792C42.979 68.8427 43.7897 63.808 45.411 58.688C47.1177 53.568 49.379 48.704 52.195 44.096C55.0963 39.4027 58.2963 35.264 61.795 31.68C65.379 28.0107 69.091 25.1093 72.931 22.976C76.771 20.8427 80.483 19.776 84.067 19.776C86.7977 19.776 88.8883 20.6293 90.339 22.336C91.875 24.0427 92.4297 27.072 92.003 31.424L90.595 32.192C91.0217 30.0587 91.0217 28.5227 90.595 27.584C90.1683 26.56 89.443 26.048 88.419 26.048C86.9683 26.048 85.3043 26.9867 83.427 28.864C81.635 30.656 79.7577 33.1733 77.795 36.416C75.9177 39.5733 74.1257 43.2427 72.419 47.424C70.7977 51.52 69.475 55.872 68.451 60.48C67.5123 65.088 67.043 69.696 67.043 74.304C67.043 76.6933 67.2563 78.4427 67.683 79.552C68.1097 80.576 68.8777 81.088 69.987 81.088ZM93.667 21.696C98.3603 21.6107 102.499 21.44 106.083 21.184C109.752 20.8427 113.336 20.3733 116.835 19.776L99.555 77.12C99.1283 78.4853 98.915 79.5947 98.915 80.448C99.0003 81.216 99.2137 81.7707 99.555 82.112C99.9817 82.368 100.494 82.496 101.091 82.496C101.859 82.496 102.84 82.0693 104.035 81.216C105.23 80.2773 106.51 78.016 107.875 74.432L110.563 67.264H112.995L109.795 76.608C108.6 80.192 106.979 82.9227 104.931 84.8C102.968 86.6773 100.792 87.9573 98.403 88.64C96.099 89.408 93.795 89.792 91.491 89.792C86.2857 89.792 82.5737 88.2987 80.355 85.312C79.075 83.52 78.3497 81.1733 78.179 78.272C78.0937 75.3707 78.6483 71.872 79.843 67.776L93.667 21.696ZM123.367 79.424C125.5 78.656 127.634 77.5467 129.767 76.096C131.9 74.56 133.948 73.0667 135.911 71.616C137.959 70.08 139.922 68.8 141.799 67.776C143.762 66.6667 145.639 66.112 147.431 66.112C149.479 66.112 151.058 66.4533 152.167 67.136C153.276 67.8187 154.258 68.5013 155.111 69.184C156.05 69.8667 157.202 70.208 158.567 70.208C159.762 70.208 160.572 69.824 160.999 69.056C161.511 68.288 161.767 67.6053 161.767 67.008C161.767 65.216 161.17 63.8507 159.975 62.912C158.78 61.9733 157.5 61.3333 156.135 60.992L156.903 59.072C161.938 60.1813 165.564 61.9307 167.783 64.32C170.002 66.624 171.111 69.696 171.111 73.536C171.111 76.5227 170.471 79.2533 169.191 81.728C167.911 84.2027 165.991 86.1653 163.431 87.616C160.956 89.0667 157.842 89.792 154.087 89.792C151.186 89.792 148.583 89.408 146.279 88.64C144.06 87.872 141.97 86.976 140.007 85.952C138.044 84.8427 135.954 83.904 133.735 83.136C131.602 82.368 129.084 81.984 126.183 81.984C123.879 81.984 121.788 82.4107 119.911 83.264C118.119 84.032 116.327 85.6107 114.535 88H110.567L175.719 28.992C173.159 29.9307 170.599 31.296 168.039 33.088C165.564 34.7947 163.132 36.544 160.743 38.336C158.354 40.128 156.007 41.664 153.703 42.944C151.484 44.224 149.394 44.864 147.431 44.864C145.468 44.864 143.89 44.5227 142.695 43.84C141.586 43.1573 140.604 42.4747 139.751 41.792C138.898 41.1093 137.831 40.768 136.551 40.768C135.442 40.768 134.588 41.1093 133.991 41.792C133.479 42.3893 133.223 43.1147 133.223 43.968C133.223 45.4187 133.65 46.5707 134.503 47.424C135.442 48.192 136.892 49.0453 138.855 49.984L138.087 51.904C133.564 50.88 130.066 49.2587 127.591 47.04C125.116 44.736 123.879 41.7493 123.879 38.08C123.879 35.1787 124.647 32.4053 126.183 29.76C127.719 27.0293 130.023 24.8107 133.095 23.104C136.167 21.312 139.964 20.416 144.487 20.416C147.474 20.416 150.034 20.8 152.167 21.568C154.3 22.2507 156.306 23.104 158.183 24.128C160.06 25.0667 162.023 25.92 164.071 26.688C166.119 27.3707 168.508 27.712 171.239 27.712C173.884 27.712 176.06 27.2853 177.767 26.432C179.559 25.4933 181.308 23.9147 183.015 21.696H186.983L123.367 79.424ZM205.362 81.088C206.215 81.088 207.111 80.7467 208.05 80.064C208.989 79.3813 209.97 78.2293 210.994 76.608C212.018 74.9013 213.127 72.5547 214.322 69.568C215.517 66.5813 216.797 62.7413 218.162 58.048L214.834 72C213.469 76.5227 211.719 80.1067 209.586 82.752C207.538 85.312 205.191 87.104 202.546 88.128C199.986 89.2373 197.213 89.792 194.226 89.792C188.85 89.792 184.839 88.4267 182.194 85.696C179.634 82.88 178.354 78.912 178.354 73.792C178.354 68.8427 179.165 63.808 180.786 58.688C182.493 53.568 184.754 48.704 187.57 44.096C190.471 39.4027 193.671 35.264 197.17 31.68C200.754 28.0107 204.466 25.1093 208.306 22.976C212.146 20.8427 215.858 19.776 219.442 19.776C222.173 19.776 224.263 20.6293 225.714 22.336C227.25 24.0427 227.805 27.072 227.378 31.424L225.97 32.192C226.397 30.0587 226.397 28.5227 225.97 27.584C225.543 26.56 224.818 26.048 223.794 26.048C222.343 26.048 220.679 26.9867 218.802 28.864C217.01 30.656 215.133 33.1733 213.17 36.416C211.293 39.5733 209.501 43.2427 207.794 47.424C206.173 51.52 204.85 55.872 203.826 60.48C202.887 65.088 202.418 69.696 202.418 74.304C202.418 76.6933 202.631 78.4427 203.058 79.552C203.485 80.576 204.253 81.088 205.362 81.088ZM229.042 21.696C233.735 21.6107 237.874 21.44 241.458 21.184C245.127 20.8427 248.711 20.3733 252.21 19.776L234.93 77.12C234.503 78.4853 234.29 79.5947 234.29 80.448C234.375 81.216 234.589 81.7707 234.93 82.112C235.357 82.368 235.869 82.496 236.466 82.496C237.234 82.496 238.215 82.0693 239.41 81.216C240.605 80.2773 241.885 78.016 243.25 74.432L245.938 67.264H248.37L245.17 76.608C243.975 80.192 242.354 82.9227 240.306 84.8C238.343 86.6773 236.167 87.9573 233.778 88.64C231.474 89.408 229.17 89.792 226.866 89.792C221.661 89.792 217.949 88.2987 215.73 85.312C214.45 83.52 213.725 81.1733 213.554 78.272C213.469 75.3707 214.023 71.872 215.218 67.776L229.042 21.696ZM264.502 86.208C265.185 86.5493 265.867 86.8053 266.55 86.976C267.318 87.0613 268.129 87.104 268.982 87.104C271.627 87.104 273.803 86.2507 275.51 84.544C277.302 82.752 278.198 80.3627 278.198 77.376C278.198 74.4747 277.515 71.4453 276.15 68.288C274.785 65.1307 272.993 61.8027 270.774 58.304C268.726 54.976 266.934 51.8613 265.398 48.96C263.862 45.9733 263.094 42.688 263.094 39.104C263.094 35.4347 264.033 32.1493 265.91 29.248C267.787 26.3467 270.603 24.0427 274.358 22.336C278.113 20.6293 282.849 19.776 288.566 19.776C292.15 19.776 295.606 20.2027 298.934 21.056C302.347 21.9093 305.121 23.4027 307.254 25.536C309.473 27.584 310.582 30.5707 310.582 34.496C310.582 36.2027 310.241 37.952 309.558 39.744C308.875 41.536 307.851 43.0293 306.486 44.224C305.206 45.3333 303.542 45.888 301.494 45.888C298.934 45.888 296.929 44.9067 295.478 42.944C294.027 40.896 293.302 38.2933 293.302 35.136C293.302 32.4053 293.729 29.9733 294.582 27.84C295.521 25.7067 296.459 24.128 297.398 23.104C296.715 22.7627 295.649 22.592 294.198 22.592C291.211 22.592 288.95 23.4453 287.414 25.152C285.963 26.8587 285.195 29.3333 285.11 32.576C285.11 34.4533 285.451 36.3733 286.134 38.336C286.902 40.2133 287.883 42.1333 289.078 44.096C290.273 45.9733 291.467 47.936 292.662 49.984C295.478 54.7627 297.441 58.688 298.55 61.76C299.745 64.7467 300.342 67.6907 300.342 70.592C300.342 74.0907 299.361 77.2907 297.398 80.192C295.521 83.0933 292.662 85.44 288.822 87.232C285.067 88.9387 280.374 89.792 274.742 89.792C270.731 89.792 266.891 89.28 263.222 88.256C259.638 87.3173 256.694 85.6533 254.39 83.264C252.171 80.8747 251.062 77.5893 251.062 73.408C251.062 70.2507 251.873 67.5627 253.494 65.344C255.03 63.1253 257.121 62.016 259.766 62.016C262.241 62.016 264.246 63.04 265.782 65.088C267.318 67.136 268.086 69.8667 268.086 73.28C268.086 76.0107 267.617 78.528 266.678 80.832C265.825 83.136 265.099 84.928 264.502 86.208Z" fill="#F8F8F8"/>
</svg>
